<svg version="1.2" xmlns="http://www.w3.org/2000/svg" viewBox="0 0 445 117" width="445" height="117">
	<title>wiitflex</title>
	<style>
		.s0 { fill: #000000 } 
	</style>
	<path id="wiitflex" class="s0" d="m38.4 113h-26.2l-11.6-107.4h21l6 67.8 6-67.8h20l5.8 67.8 5.7-67.8h21.2l-11.7 107.4h-25.7l-5.4-51.7zm74.2 0h-20.8v-107.4h20.8zm28.3 0h-20.8v-107.4h20.8zm39.2 0h-21.5v-86.8h-12.7v-20.7h47v20.7h-12.8zm40.4 0h-21.6v-107.5h42.9v21h-21.3v17.1h20.2v20.7h-20.2zm71.8 0h-43.6v-107.5h21.5v89.2h22.1zm50.5 0h-44.4v-107.5h43v20.8h-21.1v20.9h20.2v20.2h-20.2v24.6h22.5zm25.7 0h-21.8l11.6-56.9-9.2-50.6h21l5.6 37 4.9-37h21.1l-9.2 50.6 11.5 56.9h-21.7l-6.8-42z"/>
	<path id="Shape 1" class="s0" d="m417 113c-6.1 0-11-4.9-11-11 0-6.1 4.9-11 11-11 6.1 0 11 4.9 11 11 0 6.1-4.9 11-11 11z"/>
</svg>